<svg width="49" height="48" viewBox="0 0 49 48" fill="none" xmlns="http://www.w3.org/2000/svg">
<path d="M32 28.5C32 28.8978 31.842 29.2793 31.5607 29.5606C31.2794 29.8419 30.8978 30 30.5 30H18.5C18.1022 30 17.7206 29.8419 17.4393 29.5606C17.158 29.2793 17 28.8978 17 28.5C17 28.1021 17.158 27.7206 17.4393 27.4393C17.7206 27.158 18.1022 27 18.5 27H30.5C30.8978 27 31.2794 27.158 31.5607 27.4393C31.842 27.7206 32 28.1021 32 28.5ZM30.5 21H18.5C18.1022 21 17.7206 21.158 17.4393 21.4393C17.158 21.7206 17 22.1021 17 22.5C17 22.8978 17.158 23.2793 17.4393 23.5606C17.7206 23.8419 18.1022 24 18.5 24H30.5C30.8978 24 31.2794 23.8419 31.5607 23.5606C31.842 23.2793 32 22.8978 32 22.5C32 22.1021 31.842 21.7206 31.5607 21.4393C31.2794 21.158 30.8978 21 30.5 21ZM41 8.99997V40.5C41 41.2956 40.6839 42.0587 40.1213 42.6213C39.5587 43.1839 38.7956 43.5 38 43.5H11C10.2044 43.5 9.44129 43.1839 8.87868 42.6213C8.31607 42.0587 8 41.2956 8 40.5V8.99997C8 8.20432 8.31607 7.44126 8.87868 6.87865C9.44129 6.31604 10.2044 5.99997 11 5.99997H17.7987C18.6416 5.05633 19.6742 4.30133 20.829 3.78439C21.9838 3.26746 23.2348 3.00024 24.5 3.00024C25.7652 3.00024 27.0162 3.26746 28.171 3.78439C29.3258 4.30133 30.3584 5.05633 31.2013 5.99997H38C38.7956 5.99997 39.5587 6.31604 40.1213 6.87865C40.6839 7.44126 41 8.20432 41 8.99997ZM18.5 12H30.5C30.5 10.4087 29.8679 8.88255 28.7426 7.75733C27.6174 6.63211 26.0913 5.99997 24.5 5.99997C22.9087 5.99997 21.3826 6.63211 20.2574 7.75733C19.1321 8.88255 18.5 10.4087 18.5 12ZM38 8.99997H32.9844C33.3256 9.96338 33.5 10.9779 33.5 12V13.5C33.5 13.8978 33.342 14.2793 33.0607 14.5606C32.7794 14.8419 32.3978 15 32 15H17C16.6022 15 16.2206 14.8419 15.9393 14.5606C15.658 14.2793 15.5 13.8978 15.5 13.5V12C15.5 10.9779 15.6744 9.96338 16.0156 8.99997H11V40.5H38V8.99997Z" fill="#DDD2EF"/>
</svg>
