<svg width="17" height="17" viewBox="0 0 17 17" fill="none" xmlns="http://www.w3.org/2000/svg">
<path d="M16.6907 15.4968C16.7691 15.5752 16.8313 15.6682 16.8737 15.7707C16.9161 15.8731 16.938 15.9829 16.938 16.0937C16.938 16.2046 16.9161 16.3144 16.8737 16.4168C16.8313 16.5192 16.7691 16.6123 16.6907 16.6907C16.6123 16.7691 16.5192 16.8313 16.4168 16.8737C16.3144 16.9161 16.2046 16.938 16.0937 16.938C15.9829 16.938 15.8731 16.9161 15.7707 16.8737C15.6682 16.8313 15.5752 16.7691 15.4968 16.6907L8.49998 9.69283L1.50318 16.6907C1.34486 16.849 1.13013 16.938 0.906231 16.938C0.68233 16.938 0.4676 16.849 0.309278 16.6907C0.150956 16.5324 0.0620117 16.3176 0.0620117 16.0937C0.0620117 15.8698 0.150956 15.6551 0.309278 15.4968L7.30713 8.49998L0.309278 1.50318C0.150956 1.34486 0.0620117 1.13013 0.0620117 0.906231C0.0620117 0.68233 0.150956 0.4676 0.309278 0.309278C0.4676 0.150956 0.68233 0.0620117 0.906231 0.0620117C1.13013 0.0620117 1.34486 0.150956 1.50318 0.309278L8.49998 7.30713L15.4968 0.309278C15.6551 0.150956 15.8698 0.0620117 16.0937 0.0620117C16.3176 0.0620117 16.5324 0.150956 16.6907 0.309278C16.849 0.4676 16.938 0.68233 16.938 0.906231C16.938 1.13013 16.849 1.34486 16.6907 1.50318L9.69283 8.49998L16.6907 15.4968Z" fill="#6B6572"/>
</svg>
