<svg width="22" height="22" viewBox="0 0 22 22" fill="none" xmlns="http://www.w3.org/2000/svg">
<path d="M16.4454 16.4446C14.8784 17.639 12.9703 18.3008 11.0002 18.333C4.58328 18.3333 0.916164 11.0004 0.916164 11.0004C2.05636 8.87552 3.63784 7.01902 5.55449 5.55544M9.07458 3.88704C9.70557 3.73933 10.3516 3.66548 10.9997 3.66698C17.4166 3.66672 21.0837 10.9996 21.0837 10.9996C20.5273 12.0406 19.8637 13.0206 19.1037 13.9237M12.9434 12.9432C12.6917 13.2134 12.3881 13.4301 12.0507 13.5804C11.7134 13.7307 11.3492 13.8115 10.98 13.8181C10.6107 13.8246 10.2439 13.7567 9.90147 13.6184C9.55903 13.4801 9.24795 13.2743 8.98679 13.0131C8.72563 12.752 8.51975 12.441 8.38142 12.0986C8.24309 11.7562 8.17515 11.3894 8.18165 11.0202C8.18815 10.651 8.26896 10.2868 8.41926 9.94951C8.56955 9.61219 8.78626 9.30859 9.05645 9.05683M0.915771 0.91748L21.0841 21.0825" stroke="#DDD2EF" stroke-width="2" stroke-linecap="round" stroke-linejoin="round"/>
</svg>
