<svg width="105" height="36" viewBox="0 0 105 36" fill="none" xmlns="http://www.w3.org/2000/svg">
<path d="M42.3874 12.2045V16.0397H32.0642V12.2045H42.3874ZM34.2269 8.28406H39.4364V23.4226C39.4364 23.7422 39.4861 24.0014 39.5855 24.2003C39.692 24.392 39.8447 24.5305 40.0436 24.6157C40.2425 24.6939 40.4804 24.7329 40.7574 24.7329C40.9563 24.7329 41.1658 24.7152 41.3859 24.6797C41.6132 24.637 41.7837 24.6015 41.8973 24.5731L42.6857 28.3338C42.4371 28.4048 42.0855 28.4936 41.631 28.6001C41.1835 28.7066 40.6473 28.7741 40.0223 28.8025C38.8007 28.8593 37.7531 28.7173 36.8795 28.3764C36.0131 28.0284 35.349 27.4886 34.8874 26.7571C34.4328 26.0255 34.2126 25.1058 34.2269 23.9978V8.28406Z" fill="#479C6E"/>
<path d="M52.5081 28.8771C50.7894 28.8771 49.3121 28.5255 48.0763 27.8224C46.8476 27.1122 45.8994 26.125 45.2318 24.8608C44.5713 23.5895 44.2411 22.1157 44.2411 20.4396C44.2411 18.7564 44.5713 17.2826 45.2318 16.0184C45.8994 14.7471 46.8476 13.7599 48.0763 13.0568C49.3121 12.3466 50.7894 11.9914 52.5081 11.9914C54.2269 11.9914 55.7006 12.3466 56.9293 13.0568C58.1651 13.7599 59.1132 14.7471 59.7737 16.0184C60.4413 17.2826 60.7751 18.7564 60.7751 20.4396C60.7751 22.1157 60.4413 23.5895 59.7737 24.8608C59.1132 26.125 58.1651 27.1122 56.9293 27.8224C55.7006 28.5255 54.2269 28.8771 52.5081 28.8771ZM52.5401 24.946C53.1651 24.946 53.6942 24.7542 54.1274 24.3707C54.5607 23.9872 54.8909 23.4545 55.1182 22.7727C55.3526 22.0909 55.4697 21.3025 55.4697 20.4076C55.4697 19.4985 55.3526 18.7031 55.1182 18.0213C54.8909 17.3395 54.5607 16.8068 54.1274 16.4233C53.6942 16.0397 53.1651 15.848 52.5401 15.848C51.8938 15.848 51.3469 16.0397 50.8994 16.4233C50.4591 16.8068 50.1217 17.3395 49.8874 18.0213C49.6601 18.7031 49.5465 19.4985 49.5465 20.4076C49.5465 21.3025 49.6601 22.0909 49.8874 22.7727C50.1217 23.4545 50.4591 23.9872 50.8994 24.3707C51.3469 24.7542 51.8938 24.946 52.5401 24.946Z" fill="#479C6E"/>
<path d="M69.4206 28.8026C68.2132 28.8026 67.1159 28.4901 66.1287 27.8651C65.1415 27.2401 64.3531 26.3026 63.7636 25.0526C63.1741 23.8026 62.8794 22.2507 62.8794 20.397C62.8794 18.4723 63.1848 16.8885 63.7956 15.6456C64.4064 14.4027 65.2054 13.483 66.1926 12.8864C67.1869 12.2898 68.2558 11.9915 69.3993 11.9915C70.2587 11.9915 70.9937 12.1406 71.6045 12.4389C72.2153 12.7301 72.7196 13.1065 73.1173 13.5682C73.515 14.0298 73.8169 14.5092 74.0229 15.0064H74.1294V6.75H79.3389V28.5682H74.1827V25.9155H74.0229C73.8027 26.4197 73.4902 26.892 73.0854 27.3324C72.6805 27.7727 72.1727 28.1278 71.5619 28.3977C70.9582 28.6676 70.2445 28.8026 69.4206 28.8026ZM71.2317 24.7436C71.8638 24.7436 72.4035 24.566 72.851 24.2109C73.2984 23.8487 73.6429 23.3409 73.8844 22.6875C74.1258 22.0341 74.2466 21.267 74.2466 20.3864C74.2466 19.4915 74.1258 18.7209 73.8844 18.0746C73.65 17.4283 73.3055 16.9311 72.851 16.5831C72.4035 16.2351 71.8638 16.0611 71.2317 16.0611C70.5854 16.0611 70.0385 16.2386 69.591 16.5937C69.1436 16.9489 68.8027 17.4496 68.5683 18.0959C68.341 18.7422 68.2274 19.5057 68.2274 20.3864C68.2274 21.267 68.3446 22.0341 68.579 22.6875C68.8133 23.3409 69.1507 23.8487 69.591 24.2109C70.0385 24.566 70.5854 24.7436 71.2317 24.7436Z" fill="#9359F3"/>
<path d="M90.272 28.8771C88.5532 28.8771 87.076 28.5256 85.8402 27.8224C84.6115 27.1122 83.6633 26.125 82.9957 24.8608C82.3352 23.5895 82.0049 22.1158 82.0049 20.4396C82.0049 18.7564 82.3352 17.2827 82.9957 16.0185C83.6633 14.7472 84.6115 13.7599 85.8402 13.0568C87.076 12.3466 88.5532 11.9915 90.272 11.9915C91.9907 11.9915 93.4644 12.3466 94.6931 13.0568C95.9289 13.7599 96.8771 14.7472 97.5376 16.0185C98.2052 17.2827 98.539 18.7564 98.539 20.4396C98.539 22.1158 98.2052 23.5895 97.5376 24.8608C96.8771 26.125 95.9289 27.1122 94.6931 27.8224C93.4644 28.5256 91.9907 28.8771 90.272 28.8771ZM90.3039 24.946C90.9289 24.946 91.4581 24.7543 91.8913 24.3707C92.3245 23.9872 92.6548 23.4545 92.8821 22.7727C93.1164 22.0909 93.2336 21.3026 93.2336 20.4077C93.2336 19.4986 93.1164 18.7031 92.8821 18.0213C92.6548 17.3395 92.3245 16.8068 91.8913 16.4233C91.4581 16.0398 90.9289 15.848 90.3039 15.848C89.6576 15.848 89.1108 16.0398 88.6633 16.4233C88.223 16.8068 87.8856 17.3395 87.6512 18.0213C87.424 18.7031 87.3103 19.4986 87.3103 20.4077C87.3103 21.3026 87.424 22.0909 87.6512 22.7727C87.8856 23.4545 88.223 23.9872 88.6633 24.3707C89.1108 24.7543 89.6576 24.946 90.3039 24.946Z" fill="#9359F3"/>
<path d="M18.75 28.1931C18.75 28.4915 18.6315 28.7776 18.4205 28.9886C18.2095 29.1996 17.9234 29.3181 17.625 29.3181H14.625C14.3266 29.3181 14.0405 29.1996 13.8295 28.9886C13.6185 28.7776 13.5 28.4915 13.5 28.1931C13.5 27.8947 13.6185 27.6086 13.8295 27.3976C14.0405 27.1866 14.3266 27.0681 14.625 27.0681H17.625C17.9234 27.0681 18.2095 27.1866 18.4205 27.3976C18.6315 27.6086 18.75 27.8947 18.75 28.1931ZM16.125 17.6931C16.4217 17.6931 16.7117 17.6051 16.9584 17.4403C17.205 17.2755 17.3973 17.0412 17.5108 16.7671C17.6244 16.4931 17.6541 16.1915 17.5962 15.9005C17.5383 15.6095 17.3954 15.3422 17.1857 15.1325C16.9759 14.9227 16.7086 14.7798 16.4176 14.7219C16.1267 14.6641 15.8251 14.6938 15.551 14.8073C15.2769 14.9208 15.0426 15.1131 14.8778 15.3598C14.713 15.6064 14.625 15.8964 14.625 16.1931C14.625 16.5909 14.783 16.9725 15.0643 17.2538C15.3456 17.5351 15.7272 17.6931 16.125 17.6931Z" fill="#479C6E"/>
<path d="M25.4555 21.5088L24.2967 26.7241C24.2285 27.0353 24.0817 27.324 23.8704 27.5624C23.659 27.8009 23.3901 27.9812 23.0892 28.0863C22.8877 28.1571 22.6756 28.1932 22.462 28.1931C22.0439 28.1928 21.6381 28.0518 21.3098 27.7928L18.8592 25.9431H13.3898L10.9392 27.7938C10.6108 28.0524 10.205 28.193 9.78702 28.1931C9.57337 28.1929 9.3613 28.1565 9.15983 28.0853C8.85898 27.9803 8.59005 27.7999 8.37867 27.5615C8.16729 27.323 8.02052 27.0344 7.95233 26.7231L6.79358 21.5088C6.73215 21.2289 6.73534 20.9387 6.80292 20.6603C6.8705 20.3818 7.00069 20.1224 7.18358 19.9019L9.79265 16.7706C9.89246 15.5974 10.1657 14.4455 10.6036 13.3525C11.8476 10.2353 14.0723 8.28063 14.9761 7.58501C15.3047 7.33034 15.7087 7.19214 16.1245 7.19214C16.5403 7.19214 16.9443 7.33034 17.273 7.58501C18.173 8.28063 20.4014 10.2353 21.6455 13.3525C22.0833 14.4455 22.3566 15.5974 22.4564 16.7706L25.0655 19.9019C25.2484 20.1224 25.3785 20.3818 25.4461 20.6603C25.5137 20.9387 25.5169 21.2289 25.4555 21.5088ZM13.6673 23.6931H18.5817C20.4108 20.3463 20.738 17.1513 19.5558 14.1869C18.5995 11.7869 16.8933 10.1838 16.1245 9.54813C15.3558 10.1838 13.6495 11.7869 12.6933 14.1869C11.5101 17.1513 11.8383 20.3463 13.6673 23.6931ZM11.5533 24.5106C10.8053 23.1204 10.2705 21.6255 9.96702 20.0763L9.02952 21.2013L10.0214 25.6675L11.5533 24.5106ZM23.2186 21.2003L22.2811 20.0753C21.9776 21.6246 21.4428 23.1194 20.6948 24.5097L22.2258 25.6656L23.2186 21.2003Z" fill="#9359F3"/>
</svg>
