<svg width="20" height="20" viewBox="0 0 20 20" fill="none" xmlns="http://www.w3.org/2000/svg">
<path d="M8.1875 18.9375C8.1875 19.153 8.1019 19.3597 7.94952 19.512C7.79715 19.6644 7.59049 19.75 7.375 19.75H0.875C0.659512 19.75 0.452849 19.6644 0.300476 19.512C0.148103 19.3597 0.0625 19.153 0.0625 18.9375V1.0625C0.0625 0.847012 0.148103 0.640349 0.300476 0.487976C0.452849 0.335603 0.659512 0.25 0.875 0.25H7.375C7.59049 0.25 7.79715 0.335603 7.94952 0.487976C8.1019 0.640349 8.1875 0.847012 8.1875 1.0625C8.1875 1.27799 8.1019 1.48465 7.94952 1.63702C7.79715 1.7894 7.59049 1.875 7.375 1.875H1.6875V18.125H7.375C7.59049 18.125 7.79715 18.2106 7.94952 18.363C8.1019 18.5153 8.1875 18.722 8.1875 18.9375ZM19.3248 9.42516L15.2623 5.36266C15.1099 5.2102 14.9031 5.12455 14.6875 5.12455C14.4719 5.12455 14.2651 5.2102 14.1127 5.36266C13.9602 5.51511 13.8745 5.72189 13.8745 5.9375C13.8745 6.15311 13.9602 6.35989 14.1127 6.51234L16.7888 9.1875H7.375C7.15951 9.1875 6.95285 9.2731 6.80048 9.42548C6.6481 9.57785 6.5625 9.78451 6.5625 10C6.5625 10.2155 6.6481 10.4222 6.80048 10.5745C6.95285 10.7269 7.15951 10.8125 7.375 10.8125H16.7888L14.1127 13.4877C13.9602 13.6401 13.8745 13.8469 13.8745 14.0625C13.8745 14.2781 13.9602 14.4849 14.1127 14.6373C14.2651 14.7898 14.4719 14.8755 14.6875 14.8755C14.9031 14.8755 15.1099 14.7898 15.2623 14.6373L19.3248 10.5748C19.4004 10.4994 19.4603 10.4098 19.5012 10.3111C19.5421 10.2125 19.5631 10.1068 19.5631 10C19.5631 9.89322 19.5421 9.7875 19.5012 9.68886C19.4603 9.59023 19.4004 9.50062 19.3248 9.42516Z" fill="#262428"/>
</svg>
