<svg width="24" height="24" viewBox="0 0 24 24" fill="none" xmlns="http://www.w3.org/2000/svg">
<path d="M21.1775 20.1557L16.6573 15.6364C17.9675 14.0635 18.6208 12.0461 18.4813 10.0037C18.3419 7.96143 17.4205 6.0515 15.9087 4.67125C14.3969 3.29101 12.4113 2.54673 10.3647 2.59324C8.31817 2.63975 6.36835 3.47347 4.92085 4.92097C3.47335 6.36847 2.63963 8.31829 2.59312 10.3648C2.54661 12.4114 3.29089 14.3971 4.67113 15.9088C6.05137 17.4206 7.96131 18.342 10.0036 18.4815C12.0459 18.6209 14.0634 17.9676 15.6363 16.6575L20.1556 21.1777C20.2227 21.2448 20.3024 21.298 20.39 21.3343C20.4777 21.3706 20.5717 21.3893 20.6666 21.3893C20.7615 21.3893 20.8554 21.3706 20.9431 21.3343C21.0308 21.298 21.1104 21.2448 21.1775 21.1777C21.2446 21.1106 21.2979 21.0309 21.3342 20.9432C21.3705 20.8556 21.3892 20.7616 21.3892 20.6667C21.3892 20.5718 21.3705 20.4778 21.3342 20.3902C21.2979 20.3025 21.2446 20.2228 21.1775 20.1557ZM4.05546 10.5556C4.05546 9.27001 4.43668 8.0133 5.15091 6.94438C5.86514 5.87546 6.8803 5.04234 8.06802 4.55037C9.25574 4.0584 10.5627 3.92968 11.8236 4.18048C13.0844 4.43128 14.2426 5.05035 15.1517 5.95939C16.0607 6.86843 16.6798 8.02662 16.9306 9.2875C17.1814 10.5484 17.0527 11.8553 16.5607 13.043C16.0687 14.2307 15.2356 15.2459 14.1667 15.9601C13.0978 16.6744 11.841 17.0556 10.5555 17.0556C8.83214 17.0537 7.17995 16.3682 5.96138 15.1497C4.74281 13.9311 4.05737 12.2789 4.05546 10.5556Z" fill="white"/>
</svg>
